<svg xmlns="http://www.w3.org/2000/svg" viewBox="0 0 710 141.57"><defs><style>.a{fill:#89529e;}</style></defs><title>logo-purple-svg</title><path class="a" d="M194,199.23v100H172.38V279.7c-6.77,13.91-19.36,20.12-35.72,20.3C113.72,300,100,285.34,100,261.46V199.23h21.62v56.21c0,15,8.84,24.25,23.31,24.25,17.3-.38,27.45-13.72,27.45-31.21V199.23Z" transform="translate(-100 -158.43)"/><path class="a" d="M247.77,191.9v11.84H273.9v16.17H247.77V300H226.34V219.91H213.18V203.74h13.16V194c0-23.31,17.11-34.4,34.4-34.4a38.17,38.17,0,0,1,22.56,7L275,183.06a24.17,24.17,0,0,0-13.72-4.7C254,178.36,247.77,182.5,247.77,191.9Z" transform="translate(-100 -158.43)"/><path class="a" d="M534,171.41a12.6,12.6,0,1,1-25.19,0c0-7.52,5.45-13,12.6-13S534,163.89,534,171.41Z" transform="translate(-100 -158.43)"/><path class="a" d="M576.77,217.47c-17.3,0-29.71,13-29.71,32s12.41,32,29.71,32c12.6,0,22.75-4.14,29.52-12l12,12c-9,11.84-23.5,18.61-42.49,18.61-29.7,0-50.38-20.49-50.38-50.57,0-30.27,20.68-50.95,50.38-50.95,18,0,32.15,5.83,41.36,16.36l-11.84,13.91C598.39,221.6,588.8,217.28,576.77,217.47Z" transform="translate(-100 -158.43)"/><path class="a" d="M665.31,215.59c-8.46,0-14.66,2.82-14.66,10,0,18.42,53.21,8.46,53,44.74,0,20.49-18.24,29.7-38.35,29.7-14.66,0-30.27-4.89-40.23-13.91l7.71-15.42c8.65,7.71,22.56,12.41,33.46,12.41,9.21,0,16.36-3.2,16.36-10.72,0-20.49-52.64-9-52.45-45.12,0-20.3,17.67-29,36.85-29,12.6,0,25.94,3.76,35,10.15l-7.9,16C685.24,219,674.15,215.59,665.31,215.59Z" transform="translate(-100 -158.43)"/><path class="a" d="M809.69,257.51H734.12c3.38,15.42,15.23,25,31,25a38.88,38.88,0,0,0,28.2-11.66l11.47,12.22C795,293.8,780.74,300,763.45,300c-30.83,0-51.14-20.49-51.14-50.57,0-30.27,20.87-50.76,50.57-50.95C798,198.48,812.33,221.41,809.69,257.51Zm-18.8-15.79c-.75-16.17-11.47-25.94-27.83-25.94-15.79,0-27.07,10-29.33,25.94Z" transform="translate(-100 -158.43)"/><path class="a" d="M415.46,200H393.09L367.9,278.57,342,200H319.77l36.85,100H378.8l25.38-74.07,18.1,52.83L431.63,250Z" transform="translate(-100 -158.43)"/><path class="a" d="M484.79,200,452.22,300H433.87l32.54-100Z" transform="translate(-100 -158.43)"/><path class="a" d="M521.51,200,488.94,300H470.59l32.54-100Z" transform="translate(-100 -158.43)"/></svg>